<?xml version="1.0" encoding="UTF-8"?>
<svg width="23px" height="27px" viewBox="0 0 23 27" version="1.1" xmlns="http://www.w3.org/2000/svg" xmlns:xlink="http://www.w3.org/1999/xlink">
    <g id="Page-1" stroke="none" stroke-width="1" fill="none" fill-rule="evenodd">
        <g id="v1-03" transform="translate(-587.000000, -704.000000)" fill="#FFFFFF" fill-rule="nonzero">
            <g id="Group-4" transform="translate(0.000000, 317.000000)">
                <g id="Group-15">
                    <g id="Group-16" transform="translate(467.000000, 272.000000)">
                        <path d="M142.517954,136.041197 C142.105012,136.984502 141.616225,137.852809 141.049905,138.651119 C140.277957,139.739419 139.645904,140.49273 139.158801,140.91105 C138.403708,141.597696 137.59468,141.949352 136.728345,141.969352 C136.106405,141.969352 135.356368,141.794357 134.483292,141.439368 C133.60735,141.086045 132.802367,140.91105 132.06632,140.91105 C131.294372,140.91105 130.466466,141.086045 129.580917,141.439368 C128.69402,141.794357 127.979547,141.979351 127.433284,141.997684 C126.602514,142.032683 125.774439,141.671027 124.947882,140.91105 C124.420328,140.456064 123.760465,139.676088 122.969977,138.571121 C122.121845,137.391157 121.424564,136.022865 120.878301,134.462912 C120.293273,132.777963 120,131.146345 120,129.566726 C120,127.757281 120.395413,126.196662 121.187418,124.888868 C121.809864,123.8384 122.637938,123.009758 123.674337,122.401443 C124.710736,121.793128 125.830566,121.483137 127.036524,121.463305 C127.696387,121.463305 128.56171,121.665132 129.637044,122.061787 C130.709343,122.459775 131.39786,122.661602 131.699729,122.661602 C131.925414,122.661602 132.690283,122.425609 133.986919,121.955123 C135.213103,121.518803 136.247985,121.338142 137.095779,121.409306 C139.393082,121.592634 141.119009,122.488107 142.266818,124.101392 C140.212223,125.332354 139.195882,127.056469 139.216107,129.268235 C139.234648,130.991017 139.866701,132.42464 141.108896,133.562939 C141.671845,134.091256 142.300528,134.499577 143,134.789569 C142.848307,135.224555 142.688187,135.641209 142.517954,136.041197 Z M137.249157,115.54015 C137.249157,116.89046 136.750256,118.151238 135.755826,119.318203 C134.555767,120.705494 133.104236,121.507137 131.53017,121.38064 C131.510113,121.218645 131.498483,121.048151 131.498483,120.868989 C131.498483,119.572695 132.069185,118.185404 133.082662,117.051105 C133.588641,116.476789 134.232156,115.999253 135.012531,115.618315 C135.791221,115.243059 136.527774,115.035532 137.220504,115 C137.24073,115.180511 137.249157,115.361039 137.249157,115.540134 L137.249157,115.54015 Z" id="Shape"></path>
                    </g>
                </g>
            </g>
        </g>
    </g>
</svg>
